<svg xmlns="http://www.w3.org/2000/svg" xmlns:xlink="http://www.w3.org/1999/xlink" width="100" zoomAndPan="magnify" viewBox="0 0 75 74.999997" height="100" preserveAspectRatio="xMidYMid meet" version="1.0"><defs><g/><clipPath id="8e45f7c82e"><path d="M 3.75 0 L 71.25 0 C 73.320312 0 75 1.679688 75 3.75 L 75 71.25 C 75 73.320312 73.320312 75 71.25 75 L 3.75 75 C 1.679688 75 0 73.320312 0 71.25 L 0 3.75 C 0 1.679688 1.679688 0 3.75 0 Z M 3.75 0 " clip-rule="nonzero"/></clipPath><clipPath id="739711ffeb"><path d="M 0 0 L 75 0 L 75 75 L 0 75 Z M 0 0 " clip-rule="nonzero"/></clipPath><clipPath id="c7e91a66a6"><path d="M 3.75 0 L 71.25 0 C 73.320312 0 75 1.679688 75 3.75 L 75 71.25 C 75 73.320312 73.320312 75 71.25 75 L 3.75 75 C 1.679688 75 0 73.320312 0 71.25 L 0 3.75 C 0 1.679688 1.679688 0 3.75 0 Z M 3.75 0 " clip-rule="nonzero"/></clipPath><clipPath id="5250ce9bc9"><rect x="0" width="75" y="0" height="75"/></clipPath><clipPath id="d1f90af270"><path d="M 7.027344 23.28125 L 23.558594 23.28125 L 23.558594 39.8125 L 7.027344 39.8125 Z M 7.027344 23.28125 " clip-rule="nonzero"/></clipPath><clipPath id="fc607485ed"><path d="M 15.292969 23.28125 C 10.726562 23.28125 7.027344 26.980469 7.027344 31.546875 C 7.027344 36.113281 10.726562 39.8125 15.292969 39.8125 C 19.855469 39.8125 23.558594 36.113281 23.558594 31.546875 C 23.558594 26.980469 19.855469 23.28125 15.292969 23.28125 Z M 15.292969 23.28125 " clip-rule="nonzero"/></clipPath><clipPath id="b5d6690ab8"><path d="M 0.0273438 0.28125 L 16.558594 0.28125 L 16.558594 16.8125 L 0.0273438 16.8125 Z M 0.0273438 0.28125 " clip-rule="nonzero"/></clipPath><clipPath id="5c41386d8f"><path d="M 8.292969 0.28125 C 3.726562 0.28125 0.0273438 3.980469 0.0273438 8.546875 C 0.0273438 13.113281 3.726562 16.8125 8.292969 16.8125 C 12.855469 16.8125 16.558594 13.113281 16.558594 8.546875 C 16.558594 3.980469 12.855469 0.28125 8.292969 0.28125 Z M 8.292969 0.28125 " clip-rule="nonzero"/></clipPath><clipPath id="5d348c1d41"><rect x="0" width="17" y="0" height="17"/></clipPath><clipPath id="b06bf286ad"><rect x="0" width="75" y="0" height="59"/></clipPath></defs><g clip-path="url(#8e45f7c82e)"><g transform="matrix(1, 0, 0, 1, 0, -0.000000000000001893)"><g clip-path="url(#5250ce9bc9)"><g clip-path="url(#739711ffeb)"><g clip-path="url(#c7e91a66a6)"><rect x="-16.5" width="108" fill="#b4b4b4" height="107.999996" y="-16.499999" fill-opacity="1"/></g></g></g></g></g><g clip-path="url(#d1f90af270)"><g clip-path="url(#fc607485ed)"><g transform="matrix(1, 0, 0, 1, 7, 23)"><g clip-path="url(#5d348c1d41)"><g clip-path="url(#b5d6690ab8)"><g clip-path="url(#5c41386d8f)"><path fill="#ff751f" d="M 0.0273438 0.28125 L 16.558594 0.28125 L 16.558594 16.8125 L 0.0273438 16.8125 Z M 0.0273438 0.28125 " fill-opacity="1" fill-rule="nonzero"/></g></g></g></g></g></g><g transform="matrix(1, 0, 0, 1, 0, 8)"><g clip-path="url(#b06bf286ad)"><g fill="#ffffff" fill-opacity="1"><g transform="translate(0.00645256, 46.634005)"><g><path d="M 2.984375 0 L 2.984375 -34.5625 L 16.5625 -34.5625 C 19.175781 -34.5625 21.410156 -34.097656 23.265625 -33.171875 C 25.117188 -32.242188 26.535156 -30.9375 27.515625 -29.25 C 28.492188 -27.5625 28.984375 -25.570312 28.984375 -23.28125 C 28.984375 -21.007812 28.484375 -19.046875 27.484375 -17.390625 C 26.484375 -15.734375 25.035156 -14.460938 23.140625 -13.578125 C 21.253906 -12.703125 18.984375 -12.265625 16.328125 -12.265625 L 7.21875 -12.265625 L 7.21875 -18 L 15.46875 -18 C 16.863281 -18 18.023438 -18.203125 18.953125 -18.609375 C 19.878906 -19.023438 20.578125 -19.625 21.046875 -20.40625 C 21.515625 -21.195312 21.75 -22.15625 21.75 -23.28125 C 21.75 -24.445312 21.515625 -25.425781 21.046875 -26.21875 C 20.578125 -27.019531 19.878906 -27.628906 18.953125 -28.046875 C 18.023438 -28.472656 16.859375 -28.6875 15.453125 -28.6875 L 10.09375 -28.6875 L 10.09375 0 Z M 22.3125 0 L 14.015625 -15.703125 L 21.65625 -15.703125 L 30.125 0 Z M 22.3125 0 "/></g></g></g><g fill="#ffffff" fill-opacity="1"><g transform="translate(31.131374, 46.634005)"><g><path d="M 2.984375 0 L 2.984375 -34.5625 L 13.78125 -34.5625 L 19.390625 -18.640625 C 19.617188 -17.898438 19.890625 -16.953125 20.203125 -15.796875 C 20.515625 -14.648438 20.828125 -13.421875 21.140625 -12.109375 C 21.453125 -10.796875 21.742188 -9.523438 22.015625 -8.296875 C 22.285156 -7.066406 22.515625 -6.003906 22.703125 -5.109375 L 21.21875 -5.109375 C 21.40625 -5.984375 21.632812 -7.03125 21.90625 -8.25 C 22.175781 -9.476562 22.46875 -10.753906 22.78125 -12.078125 C 23.101562 -13.398438 23.414062 -14.640625 23.71875 -15.796875 C 24.019531 -16.953125 24.289062 -17.898438 24.53125 -18.640625 L 30.0625 -34.5625 L 40.859375 -34.5625 L 40.859375 0 L 33.765625 0 L 33.765625 -16.328125 C 33.765625 -17.085938 33.773438 -18.019531 33.796875 -19.125 C 33.828125 -20.238281 33.859375 -21.4375 33.890625 -22.71875 C 33.929688 -24.007812 33.96875 -25.304688 34 -26.609375 C 34.03125 -27.921875 34.054688 -29.15625 34.078125 -30.3125 L 34.609375 -30.3125 C 34.296875 -29.039062 33.957031 -27.734375 33.59375 -26.390625 C 33.226562 -25.046875 32.863281 -23.734375 32.5 -22.453125 C 32.132812 -21.179688 31.796875 -20.015625 31.484375 -18.953125 C 31.171875 -17.898438 30.894531 -17.023438 30.65625 -16.328125 L 24.90625 0 L 18.96875 0 L 13.15625 -16.328125 C 12.90625 -17.023438 12.617188 -17.898438 12.296875 -18.953125 C 11.984375 -20.003906 11.640625 -21.160156 11.265625 -22.421875 C 10.898438 -23.691406 10.53125 -25 10.15625 -26.34375 C 9.789062 -27.6875 9.4375 -29.007812 9.09375 -30.3125 L 9.734375 -30.3125 C 9.753906 -29.195312 9.78125 -27.988281 9.8125 -26.6875 C 9.84375 -25.394531 9.875 -24.097656 9.90625 -22.796875 C 9.9375 -21.492188 9.96875 -20.28125 10 -19.15625 C 10.03125 -18.039062 10.046875 -17.097656 10.046875 -16.328125 L 10.046875 0 Z M 2.984375 0 "/></g></g></g></g></g></svg>