<svg width="24" height="24" viewBox="0 0 24 24" fill="none" xmlns="http://www.w3.org/2000/svg">
	<path
		d="M14 11H19.5C20.3284 11 21 10.3284 21 9.5V8.5C21 7.67157 20.3284 7 19.5 7H4.5C3.67157 7 3 7.67157 3 8.5V9.5C3 10.3284 3.67157 11 4.5 11H10"
		stroke="#FF7D1A" stroke-width="1.5" stroke-linecap="round" stroke-linejoin="round" />
	<path d="M20 11V19C20 20.1046 19.1046 21 18 21H6C4.89543 21 4 20.1046 4 19V11" stroke="#FF7D1A"
		stroke-width="1.5" stroke-linecap="round" stroke-linejoin="round" />
	<path fill-rule="evenodd" clip-rule="evenodd"
		d="M10 3V3C11.1046 3 12 3.89543 12 5V7H10C8.89543 7 8 6.10457 8 5V5C8 3.89543 8.89543 3 10 3Z"
		stroke="#FF7D1A" stroke-width="1.5" stroke-linecap="round" stroke-linejoin="round" />
	<path fill-rule="evenodd" clip-rule="evenodd"
		d="M14 3V3C15.1046 3 16 3.89543 16 5V5C16 6.10457 15.1046 7 14 7H12V5C12 3.89543 12.8954 3 14 3Z"
		stroke="#FF7D1A" stroke-width="1.5" stroke-linecap="round" stroke-linejoin="round" />
	<rect x="10" y="7" width="4" height="14" rx="1" stroke="#FF7D1A" stroke-width="1.5"
		stroke-linecap="round" stroke-linejoin="round" />
</svg>