<svg width="48" height="48" viewBox="0 0 48 48" fill="none" xmlns="http://www.w3.org/2000/svg">
	<path
		d="M24 0C37.2548 0 48 10.7452 48 24C48 37.2548 37.2548 48 24 48C10.7452 48 0 37.2548 0 24C0 10.7452 10.7452 0 24 0ZM23.999 11.2002C20.525 11.2002 20.0884 11.2152 18.7236 11.2773C17.361 11.3397 16.4301 11.5555 15.6162 11.8721C14.7745 12.199 14.06 12.636 13.3486 13.3477C12.6367 14.0591 12.2001 14.7737 11.8721 15.6152C11.5548 16.4293 11.3387 17.3597 11.2773 18.7217C11.2163 20.087 11.2002 20.5238 11.2002 24C11.2002 27.476 11.2155 27.9113 11.2773 29.2764C11.34 30.639 11.5558 31.5699 11.8721 32.3838C12.1993 33.2255 12.637 33.94 13.3486 34.6514C14.0597 35.3631 14.774 35.8011 15.6152 36.1279C16.4296 36.4444 17.3603 36.6603 18.7227 36.7227C20.0877 36.7848 20.5243 36.7998 24 36.7998C27.4761 36.7998 27.9111 36.7848 29.2764 36.7227C30.639 36.6603 31.5704 36.4445 32.3848 36.1279C33.2262 35.8011 33.9393 35.3631 34.6504 34.6514C35.3624 33.9399 35.7999 33.2253 36.1279 32.3838C36.4426 31.5697 36.6586 30.6393 36.7227 29.2773C36.784 27.912 36.7998 27.4763 36.7998 24C36.7998 20.5242 36.784 20.0876 36.7227 18.7227C36.6587 17.36 36.4426 16.4291 36.1279 15.6152C35.7999 14.7735 35.3623 14.0591 34.6504 13.3477C33.9385 12.6358 33.2263 12.1987 32.3838 11.8721C31.5678 11.5556 30.637 11.3397 29.2744 11.2773C27.9094 11.2152 27.4746 11.2002 23.999 11.2002Z"
		fill="white" fill-opacity="0.6" />
	<path
		d="M22.8525 13.5068C23.1933 13.5063 23.5739 13.5068 24.001 13.5068C27.4186 13.5068 27.8242 13.5197 29.1738 13.5811C30.4214 13.6381 31.0986 13.8463 31.5498 14.0215C32.1471 14.2535 32.5737 14.5305 33.0215 14.9785C33.4695 15.4265 33.746 15.8538 33.9785 16.4512C34.1537 16.9018 34.3631 17.5792 34.4199 18.8271C34.4812 20.1763 34.4941 20.5822 34.4941 23.998C34.4941 27.4134 34.4812 27.819 34.4199 29.168C34.3629 30.4158 34.1537 31.0933 33.9785 31.5439C33.7466 32.1412 33.4693 32.567 33.0215 33.0146C32.5735 33.4627 32.1474 33.7397 31.5498 33.9717C31.0992 34.1477 30.4216 34.356 29.1738 34.4131C27.8245 34.4744 27.4186 34.4883 24.001 34.4883C20.5835 34.4883 20.1783 34.4744 18.8291 34.4131C17.5811 34.3555 16.9036 34.1469 16.4521 33.9717C15.8549 33.7397 15.4284 33.4625 14.9805 33.0146C14.5325 32.5666 14.255 32.1406 14.0225 31.543C13.8473 31.0923 13.6378 30.4148 13.5811 29.167C13.5197 27.8179 13.5078 27.4121 13.5078 23.9941C13.5078 20.5762 13.5197 20.1726 13.5811 18.8232C13.6381 17.5755 13.8473 16.8984 14.0225 16.4473C14.2545 15.8499 14.5325 15.4236 14.9805 14.9756C15.4285 14.5276 15.8549 14.2501 16.4521 14.0176C16.9034 13.8416 17.5811 13.6335 18.8291 13.5762C20.0097 13.5228 20.4674 13.5066 22.8525 13.5039V13.5068ZM24.001 17.4268C20.3709 17.4269 17.4277 20.3709 17.4277 24.001C17.428 27.6309 20.3711 30.5721 24.001 30.5723C27.631 30.5723 30.573 27.631 30.5732 24.001C30.5732 20.3708 27.6311 17.4268 24.001 17.4268ZM30.834 15.6318C29.986 15.6318 29.2979 16.3197 29.2979 17.168C29.2979 18.016 29.986 18.7041 30.834 18.7041C31.6819 18.704 32.3701 18.0159 32.3701 17.168C32.3701 16.32 31.6819 15.6319 30.834 15.6318Z"
		fill="white" fill-opacity="0.6" />
	<path
		d="M24.0012 19.7334C26.3575 19.7334 28.2679 21.6436 28.2679 24.0001C28.2679 26.3564 26.3575 28.2668 24.0012 28.2668C21.6447 28.2668 19.7345 26.3564 19.7345 24.0001C19.7345 21.6436 21.6447 19.7334 24.0012 19.7334Z"
		fill="white" fill-opacity="0.6" />
</svg>