<svg width="48" height="48" viewBox="0 0 48 48" fill="none" xmlns="http://www.w3.org/2000/svg">
	<path
		d="M24 0C37.2548 0 48 10.7452 48 24C48 37.2548 37.2548 48 24 48C10.7452 48 0 37.2548 0 24C0 10.7452 10.7452 0 24 0ZM24 15.2002C24 15.2002 15.9944 15.1997 13.998 15.749C12.8966 16.0513 12.0288 16.9423 11.7344 18.0732C11.1996 20.1231 11.2002 24.4004 11.2002 24.4004C11.2002 24.4472 11.2026 28.6878 11.7344 30.7266C12.0288 31.8575 12.8966 32.7483 13.998 33.0508C15.9944 33.6 24 33.5996 24 33.5996C24 33.5996 32.0057 33.6 34.002 33.0508C35.1033 32.7483 35.9703 31.8575 36.2646 30.7266C36.7966 28.6879 36.7998 24.4472 36.7998 24.4004C36.7998 24.4004 36.7996 20.1231 36.2646 18.0732C35.9703 16.9424 35.1033 16.0513 34.002 15.749C32.0057 15.1997 24 15.2002 24 15.2002Z"
		fill="#FF7D1A" />
	<path d="M21.6 28.7998V20.7998L28 24.8L21.6 28.7998Z" fill="#FF7D1A" />
</svg>